<svg width="246" height="75" viewBox="0 0 246 75" fill="none" xmlns="http://www.w3.org/2000/svg">
<g clip-path="url(#clip0_12_2144)">
<path d="M243.309 3.375H3.45935V72.375H243.309V3.375Z" fill="white" stroke="black" stroke-width="9" stroke-miterlimit="10"/>
<path d="M34.8928 22.362C38.1608 22.362 40.4831 23.0962 41.8592 24.5647C42.8909 25.6815 43.4075 27.0907 43.4075 28.794C43.4075 29.382 43.3498 29.9985 43.2353 30.6442L42.6333 34.0808C42.2889 35.9902 41.6939 37.5322 40.8483 38.706C40.0027 39.8805 39.064 40.7182 38.0316 41.2177L41.9445 54.081H33.2584L29.6461 42.2302H26.9801L25.2173 54.081H16.9609L22.4221 22.362H34.8928ZM32.1837 29.2342H28.9588L27.8403 36.9H30.8507C32.3705 36.9 33.4591 36.5257 34.1187 35.7765C34.7775 35.0272 35.108 34.0365 35.108 32.8027C35.1073 30.4237 34.1325 29.2342 32.1837 29.2342Z" fill="#B00000" stroke="#B00000" stroke-miterlimit="10"/>
<path d="M58.3712 22.362L52.953 54.081H45.1694L50.6306 22.362H58.3712Z" fill="#B00000" stroke="#B00000" stroke-miterlimit="10"/>
<path d="M74.3243 54.081L74.5818 47.1645H67.4009L65.2938 54.081H57.0804L68.132 22.362H82.3223L82.4945 54.081H74.3243ZM72.5615 30.072L69.1644 41.262H74.7978L75.2706 30.072H72.5615Z" fill="#B00000" stroke="#B00000" stroke-miterlimit="10"/>
<path d="M106.188 54.081H86.5797L92.0409 22.362H99.7807L95.5234 47.2087H107.391L106.188 54.081Z" fill="#B00000" stroke="#B00000" stroke-miterlimit="10"/>
<path d="M241.387 6H119.156V69.75H241.387V6Z" fill="black"/>
<path d="M163.065 22.362L162.334 46.3717H163.323L170.805 22.362H179.233L168.612 54.081H155.712L156.873 33.7717L151.111 54.081H138.211L138.512 22.362H146.94L146.166 46.3717H147.155L154.68 22.362H163.065Z" fill="white" stroke="white" stroke-miterlimit="10"/>
<path d="M199.574 54.081H177.986L183.448 22.362H205.034L203.83 29.2342H189.984L188.995 35.1817H200.433L199.23 42.054H187.791L186.932 47.2087H200.778L199.574 54.081Z" fill="white" stroke="white" stroke-miterlimit="10"/>
<path d="M222.45 22.362C225.718 22.362 228.04 23.0962 229.417 24.5647C230.449 25.6815 230.965 27.0907 230.965 28.794C230.965 29.382 230.907 29.9985 230.793 30.6442L230.406 32.7585C230.09 34.4325 229.481 35.7397 228.578 36.6795C227.675 37.62 226.88 38.0895 226.192 38.0895L226.149 38.442C226.951 38.442 227.768 38.8972 228.599 39.8077C229.43 40.7182 229.846 41.7907 229.846 43.0237C229.846 43.5232 229.789 44.052 229.674 44.6092L229.416 45.975C228.957 48.501 227.861 50.4832 226.126 51.9225C224.392 53.3617 221.977 54.081 218.881 54.081H204.518L209.979 22.362H222.45ZM218.58 41.1292H214.495L213.463 47.2087H217.548C217.605 47.2087 217.662 47.2087 217.72 47.2087C219.038 47.2087 220.085 46.893 220.86 46.2615C221.634 45.63 222.02 44.859 222.02 43.9485C222.02 42.0697 220.873 41.1292 218.58 41.1292ZM219.741 29.2342H216.516L215.398 35.7982H218.581C221.333 35.7982 222.709 34.5645 222.709 32.0977C222.709 31.2465 222.458 30.5557 221.957 30.027C221.454 29.499 220.715 29.2342 219.741 29.2342Z" fill="white" stroke="white" stroke-miterlimit="10"/>
</g>
<defs>
<clipPath id="clip0_12_2144">
<rect width="246" height="75" fill="white"/>
</clipPath>
</defs>
</svg>
